<svg width="147" height="52" viewBox="0 0 147 52" fill="none" xmlns="http://www.w3.org/2000/svg">
<g id="IMAGE">
<g clip-path="url(#clip0_2_1089)">
<path d="M0 6C0 2.68629 2.68629 0 6 0H141C144.314 0 147 2.68629 147 6V46C147 49.3137 144.314 52 141 52H6C2.68629 52 0 49.3137 0 46V6Z" fill="#35B8BE"/>
<g id="Button Wave">
<g id="Wave Plain">
<g id="Group 177" opacity="0.2">
<path id="Path 813" opacity="0.2" fill-rule="evenodd" clip-rule="evenodd" d="M-1.91695 -49.4416C2.46842 -46.1951 3.237 -39.4041 5.06891 -33.7621C6.77321 -28.5135 8.5014 -23.401 8.35664 -17.8041C8.18949 -11.2105 8.73795 -3.08027 4.19214 0.865665C-0.386501 4.84193 -6.8515 0.109136 -12.5785 0.375203C-17.7601 0.614403 -23.3595 5.72433 -27.6569 2.34086C-31.9997 -1.08074 -29.926 -9.11834 -31.8281 -14.7881C-33.5824 -20.0167 -38.7602 -23.8179 -38.3028 -29.394C-37.8387 -35.0534 -33.272 -38.8573 -29.5522 -42.551C-25.9212 -46.1546 -21.9313 -49.1219 -17.2534 -50.2876C-12.1293 -51.5659 -6.34486 -52.7185 -1.91695 -49.4416Z" stroke="white"/>
<path id="Path 814" opacity="0.2" fill-rule="evenodd" clip-rule="evenodd" d="M0.789518 -55.9981C6.2427 -51.9611 7.20006 -43.5182 9.47968 -36.5103C11.6011 -29.9843 13.7479 -23.6324 13.574 -16.6739C13.3688 -8.48304 14.0538 1.61978 8.40366 6.52338C2.71244 11.4634 -5.32628 5.57676 -12.4457 5.90089C-18.8876 6.19729 -25.8466 12.5448 -31.1908 8.33712C-36.5918 4.08439 -34.0167 -5.90395 -36.3836 -12.95C-38.5662 -19.45 -45.0051 -24.1757 -44.4425 -31.103C-43.8679 -38.1342 -38.1916 -42.8609 -33.569 -47.4482C-29.0567 -51.9245 -24.0975 -55.6108 -18.2817 -57.0573C-11.9085 -58.6441 -4.71739 -60.0749 0.789518 -55.9981Z" stroke="white"/>
<path id="Path 815" opacity="0.2" fill-rule="evenodd" clip-rule="evenodd" d="M3.30564 -62.083C9.75051 -57.3164 10.8847 -47.3429 13.58 -39.0584C16.0879 -31.3503 18.6265 -23.8448 18.422 -15.6271C18.1817 -5.95075 18.9936 5.9877 12.3182 11.7762C5.59422 17.6088 -3.90708 10.6538 -12.3189 11.0377C-19.9301 11.3844 -28.1524 18.8794 -34.4681 13.9056C-40.8511 8.87893 -37.8103 -2.91652 -40.6093 -11.2409C-43.1896 -18.9187 -50.7993 -24.5061 -50.1322 -32.6892C-49.4554 -40.9979 -42.7486 -46.58 -37.2872 -51.9958C-31.9564 -57.2824 -26.0944 -61.6351 -19.2257 -63.3433C-11.7025 -65.2118 -3.20563 -66.8991 3.30564 -62.083Z" stroke="white"/>
<path id="Path 816" opacity="0.2" fill-rule="evenodd" clip-rule="evenodd" d="M5.91137 -68.4033C13.3852 -62.8723 14.7023 -51.3115 17.8296 -41.7097C20.7397 -32.7735 23.6834 -24.0703 23.4484 -14.5413C23.173 -3.32061 24.12 10.5189 16.376 17.2295C8.57974 23.9895 -2.44003 15.9235 -12.195 16.3629C-21.0225 16.7615 -30.5551 25.4525 -37.8797 19.684C-45.282 13.8556 -41.7599 0.178696 -45.0051 -9.47337C-47.9988 -18.3749 -56.8248 -24.8547 -56.0488 -34.3465C-55.2653 -43.9769 -47.4885 -50.4493 -41.1563 -56.7274C-34.9748 -62.8548 -28.1815 -67.9004 -20.2129 -69.8781C-11.4891 -72.0344 -1.63637 -73.9907 5.91137 -68.4033Z" stroke="white"/>
<path id="Path 817" opacity="0.2" fill-rule="evenodd" clip-rule="evenodd" d="M9.10057 -76.1295C17.831 -69.665 19.3734 -56.1616 23.0275 -44.9426C26.4287 -34.5027 29.8701 -24.3378 29.594 -13.2081C29.2731 -0.10325 30.3775 16.063 21.3351 23.902C12.2316 31.7947 -0.646213 22.3711 -12.0421 22.8851C-22.3552 23.3496 -33.4906 33.4967 -42.0487 26.7593C-50.6978 19.9499 -46.5833 3.97477 -50.3777 -7.30056C-53.8766 -17.7006 -64.1883 -25.2674 -63.2869 -36.3521C-62.3728 -47.6006 -53.2879 -55.1589 -45.8924 -62.4901C-38.6722 -69.647 -30.7364 -75.537 -21.4269 -77.8476C-11.228 -80.3748 0.282808 -82.6555 9.10057 -76.1295Z" stroke="white"/>
<path id="Path 818" opacity="0.2" fill-rule="evenodd" clip-rule="evenodd" d="M12.5801 -84.556C22.6858 -77.0784 24.4699 -61.4535 28.6978 -48.4725C32.634 -36.3929 36.6179 -24.6304 36.3038 -11.7543C35.9307 3.40803 37.2134 22.1104 26.7525 31.1758C16.2163 40.307 1.31704 29.4018 -11.8697 29.9964C-23.8028 30.5311 -36.6866 42.271 -46.59 34.4736C-56.5987 26.5947 -51.8403 8.11284 -56.2324 -4.93396C-60.2827 -16.9642 -72.2151 -25.7242 -71.1749 -38.5456C-70.1183 -51.5621 -59.6089 -60.2991 -51.0508 -68.7846C-42.6934 -77.063 -33.5153 -83.8769 -22.7432 -86.5462C-10.9437 -89.4721 2.37514 -92.109 12.5801 -84.556Z" stroke="white"/>
<path id="Path 819" opacity="0.2" fill-rule="evenodd" clip-rule="evenodd" d="M15.9626 -92.7517C27.4032 -84.2844 29.4239 -66.5993 34.2137 -51.9058C38.6715 -38.2333 43.1822 -24.9186 42.8278 -10.343C42.4099 6.81696 43.8597 27.9874 32.0199 38.2487C20.0927 48.582 3.22581 36.2352 -11.7018 36.9051C-25.2079 37.5118 -39.7937 50.7962 -51.0053 41.9701C-62.3362 33.0495 -56.9509 12.1306 -61.9243 -2.63657C-66.5104 -16.2528 -80.0187 -26.1699 -78.8427 -40.6831C-77.6488 -55.4165 -65.7523 -65.3058 -56.0652 -74.9059C-46.6094 -84.2763 -36.2165 -91.9873 -24.0222 -95.0077C-10.6668 -98.3166 4.41 -101.301 15.9626 -92.7517Z" stroke="white"/>
<path id="Path 820" opacity="0.2" fill-rule="evenodd" clip-rule="evenodd" d="M19.0555 -100.244C31.7169 -90.8749 33.954 -71.3056 39.2557 -55.0487C44.1888 -39.9184 49.1801 -25.1869 48.7898 -9.0582C48.3287 9.93047 49.9345 33.3574 36.8328 44.7098C23.6342 56.1446 4.97039 42.4818 -11.5511 43.222C-26.4996 43.8893 -42.6367 58.5905 -55.0444 48.8214C-67.5805 38.9484 -61.6259 15.8013 -67.1328 -0.537103C-72.2069 -15.6067 -87.1583 -26.5805 -85.857 -42.6398C-84.5362 -58.941 -71.3726 -69.8851 -60.6528 -80.507C-50.1897 -90.8741 -38.6886 -99.4005 -25.1952 -102.746C-10.4139 -106.404 6.26803 -109.704 19.0555 -100.244Z" stroke="white"/>
<path id="Path 821" opacity="0.2" fill-rule="evenodd" clip-rule="evenodd" d="M22.3418 -108.203C36.3 -97.8728 38.767 -76.3038 44.6126 -58.3803C50.0524 -41.7004 55.5563 -25.4617 55.125 -7.68029C54.6183 13.248 56.3935 39.071 41.9465 51.584C27.3957 64.187 6.82096 49.1262 -11.3891 49.9374C-27.8681 50.6749 -45.6558 66.8765 -59.335 56.1073C-73.159 45.2237 -66.5925 19.707 -72.6613 1.69944C-78.2577 -14.9102 -94.7381 -27.0079 -93.3047 -44.7104C-91.8496 -62.6799 -77.3362 -74.7422 -65.5224 -86.4509C-53.9885 -97.8788 -41.3107 -107.281 -26.4361 -110.963C-10.1437 -114.995 8.24767 -118.634 22.3418 -108.203Z" stroke="white"/>
<path id="Path 822" opacity="0.2" fill-rule="evenodd" clip-rule="evenodd" d="M25.916 -116.864C41.2876 -105.488 44.0037 -81.7421 50.4404 -62.0037C56.4301 -43.6417 62.4914 -25.7616 62.0183 -6.1905C61.4609 16.8533 63.413 45.2844 47.5109 59.06C31.4931 72.9354 8.83493 56.3528 -11.2145 57.2463C-29.359 58.0549 -48.9443 75.8935 -64.0054 64.0349C-79.2278 52.0524 -71.9979 23.9636 -78.6808 4.13079C-84.8436 -14.1559 -102.99 -27.48 -101.413 -46.9687C-99.8115 -66.7504 -83.8348 -80.0311 -70.8249 -92.9202C-58.1262 -105.502 -44.1679 -115.852 -27.7897 -119.906C-9.85273 -124.346 10.3952 -128.352 25.916 -116.864Z" stroke="white"/>
</g>
</g>
</g>
</g>
</g>
<defs>
<clipPath id="clip0_2_1089">
<path d="M0 6C0 2.68629 2.68629 0 6 0H141C144.314 0 147 2.68629 147 6V46C147 49.3137 144.314 52 141 52H6C2.68629 52 0 49.3137 0 46V6Z" fill="white"/>
</clipPath>
</defs>
</svg>
